<?xml version="1.0" standalone="no"?>
<!DOCTYPE svg PUBLIC "-//W3C//DTD SVG 20010904//EN"
 "http://www.w3.org/TR/2001/REC-SVG-20010904/DTD/svg10.dtd">
<svg version="1.0" xmlns="http://www.w3.org/2000/svg"
 width="480.000000pt" height="480.000000pt" viewBox="0 0 480.000000 480.000000"
 preserveAspectRatio="xMidYMid meet">
<metadata>
Created by potrace 1.11, written by Peter Selinger 2001-2013
</metadata>
<g transform="translate(0.000000,480.000000) scale(0.100000,-0.100000)"
fill="#000000" stroke="none">
<path d="M2319 4666 c-2 -3 -47 -12 -99 -21 -228 -40 -594 -177 -765 -287 -77
-49 -280 -221 -289 -244 -3 -7 -23 -21 -46 -30 -54 -22 -100 -75 -100 -118 0
-20 -21 -73 -54 -137 -29 -57 -64 -134 -76 -172 -12 -37 -28 -74 -36 -81 -7
-8 -64 -31 -124 -51 -211 -70 -405 -178 -510 -284 -69 -69 -105 -131 -127
-215 -15 -56 -16 -73 -4 -127 17 -85 50 -146 116 -217 70 -76 178 -151 308
-212 114 -54 326 -130 364 -130 l25 0 -31 -39 c-140 -177 -131 -408 24 -579
78 -86 198 -142 308 -142 l52 -1 38 -77 c50 -101 155 -249 237 -332 71 -72
180 -153 274 -203 l58 -31 -28 -13 c-16 -6 -54 -19 -85 -27 -43 -12 -65 -26
-93 -56 -32 -36 -36 -46 -36 -94 0 -43 -12 -81 -64 -203 -52 -120 -119 -315
-182 -525 -5 -16 2 -18 45 -18 48 0 50 1 56 33 15 64 124 385 155 452 l32 70
49 -125 c28 -69 57 -151 65 -183 14 -53 14 -63 -4 -135 -11 -42 -23 -85 -27
-95 -7 -16 4 -17 150 -17 106 0 154 3 150 10 -12 20 24 60 54 60 33 0 66 -32
57 -55 -5 -14 2 -16 41 -13 l48 3 22 110 c12 61 25 149 29 196 8 97 1 118 -53
163 -19 15 -49 58 -68 95 -32 65 -109 271 -102 277 1 2 43 -10 92 -26 179 -57
291 -57 470 0 49 16 91 28 92 26 6 -6 -69 -210 -99 -270 -16 -34 -53 -84 -80
-113 l-51 -52 5 -88 c3 -48 16 -141 29 -206 l23 -117 241 0 241 0 -13 97 c-16
115 -11 141 65 332 l49 124 41 -117 c23 -65 56 -172 73 -239 55 -220 43 -197
94 -197 25 0 45 5 45 11 0 20 -72 294 -102 388 -17 52 -48 136 -69 185 -30 68
-39 103 -39 145 0 101 -52 151 -185 176 -42 8 -80 15 -83 15 -4 0 29 20 73 43
223 117 409 309 522 539 l38 77 52 1 c110 0 230 56 308 142 154 171 164 402
25 578 -34 43 -39 66 -12 55 44 -19 77 -16 184 21 250 85 487 227 570 340 72
99 83 130 83 234 0 119 -24 176 -115 273 -112 120 -286 220 -537 307 -67 23
-124 48 -127 56 -3 7 -1 26 3 41 10 35 -1 66 -39 110 -47 53 -82 130 -75 163
9 42 -17 85 -62 103 -46 18 -145 128 -149 165 -6 53 -72 109 -157 133 -21 5
-68 29 -105 53 -37 24 -92 56 -122 71 -30 15 -66 38 -80 51 -17 15 -60 33
-125 49 -55 15 -149 39 -210 55 -107 27 -278 50 -378 50 -34 0 -57 6 -74 20
-23 18 -73 27 -84 16z m241 -146 c559 -49 1032 -339 1238 -763 42 -85 76 -177
68 -184 -2 -2 -27 10 -56 28 -71 44 -281 138 -443 198 -166 62 -291 94 -517
133 -160 27 -196 30 -410 30 -187 1 -268 -4 -395 -21 -329 -44 -704 -167 -965
-316 -93 -53 -110 -60 -104 -42 58 192 197 408 347 540 154 135 358 252 552
316 148 49 358 85 525 90 25 0 97 -4 160 -9z m180 -870 c1096 -46 1913 -343
1913 -695 0 -142 -121 -270 -368 -390 -88 -42 -302 -121 -309 -114 -2 2 -8 60
-13 129 -11 154 -30 199 -118 286 -180 178 -554 316 -1025 380 -196 26 -616
23 -830 -6 -451 -61 -835 -211 -1008 -393 -75 -80 -93 -128 -99 -264 -3 -61
-9 -116 -13 -123 -9 -15 -159 35 -298 101 -442 208 -505 470 -167 695 424 281
1340 436 2335 394z m-1090 -684 c113 -108 252 -168 385 -166 42 1 83 -7 135
-26 96 -34 209 -38 260 -8 l33 19 55 -27 c57 -29 120 -36 166 -18 18 6 33 5
56 -6 41 -21 76 -11 116 31 27 29 34 32 44 20 16 -20 95 -34 136 -25 20 5 46
18 58 29 12 12 33 21 47 21 13 0 37 7 53 15 27 14 31 14 50 -4 52 -48 115 -49
169 -1 18 15 48 30 68 34 20 3 48 19 64 36 16 17 33 30 38 30 19 0 175 -110
206 -145 30 -35 31 -38 31 -139 0 -57 -3 -137 -6 -178 l-7 -75 -51 1 c-28 0
-65 -5 -82 -12 -30 -13 -31 -15 -42 -113 -19 -159 -50 -292 -109 -469 -79
-235 -139 -347 -276 -511 -113 -136 -323 -264 -572 -350 -237 -81 -307 -81
-539 -3 -261 89 -467 214 -583 353 -129 155 -190 264 -263 470 -59 169 -95
314 -118 474 l-17 122 -45 23 c-24 12 -61 22 -82 22 -38 0 -38 0 -40 43 -4
101 5 235 19 267 39 95 257 250 362 256 28 2 59 13 85 31 38 26 90 51 110 52
5 1 44 -32 86 -73z m-525 -980 c14 -57 41 -149 60 -206 19 -57 33 -105 30
-108 -10 -11 -129 19 -169 43 -60 35 -123 105 -154 173 -37 81 -38 193 0 273
29 64 86 131 138 164 l35 22 17 -129 c9 -72 29 -176 43 -232z m2644 340 c43
-23 110 -102 139 -164 22 -47 26 -72 26 -137 0 -65 -4 -90 -26 -137 -31 -68
-94 -138 -154 -173 -40 -24 -159 -54 -169 -43 -3 3 13 58 35 123 48 142 84
303 101 443 7 56 14 102 16 102 2 0 16 -6 32 -14z m-1601 -1952 c40 -28 20
-93 -29 -94 -9 0 -27 8 -39 18 -37 30 -12 85 40 91 3 1 16 -6 28 -15z"/>
<path d="M1430 2531 c-44 -9 -60 -18 -60 -36 0 -14 9 -17 120 -35 83 -14 281
-64 340 -85 68 -25 190 -21 190 6 0 29 -269 123 -410 145 -102 15 -125 16
-180 5z"/>
<path d="M3140 2525 c-131 -21 -390 -115 -390 -142 0 -33 110 -33 215 1 101
32 273 73 347 82 102 11 116 44 27 63 -61 13 -91 13 -199 -4z"/>
<path d="M1425 2177 c-28 -44 16 -132 85 -167 78 -40 187 -14 229 53 l21 35
106 4 c90 3 108 6 120 23 18 24 18 40 -2 59 -13 14 -53 16 -279 16 l-265 0
-15 -23z"/>
<path d="M2865 2177 c-28 -44 16 -132 85 -167 78 -40 187 -14 229 53 l21 35
106 4 c90 3 108 6 120 23 18 24 18 40 -2 59 -13 14 -53 16 -279 16 l-265 0
-15 -23z"/>
<path d="M2501 1298 c-27 -29 -36 -32 -84 -32 -40 0 -60 5 -81 21 -44 35 -82
3 -51 -43 19 -30 84 -47 157 -42 47 3 64 10 88 33 36 34 46 61 30 80 -18 21
-25 19 -59 -17z"/>
</g>
</svg>
